<svg width="141" height="30" viewBox="0 0 141 30" fill="none" xmlns="http://www.w3.org/2000/svg">
<path d="M13.62 17.265H4.75499V14.19H13.62V17.265ZM8.72999 4.905H9.65999L3.44999 22.5H-9.75747e-06L7.48499 1.5H10.89L18.39 22.5H14.925L8.72999 4.905ZM24.4978 22.8C23.3978 22.8 22.4378 22.685 21.6178 22.455C20.7978 22.215 20.0728 21.94 19.4428 21.63L19.7728 18.645C20.3728 19.035 21.0578 19.385 21.8278 19.695C22.5978 19.995 23.4478 20.145 24.3778 20.145C25.1978 20.145 25.8228 20.015 26.2528 19.755C26.6828 19.485 26.8978 19.075 26.8978 18.525C26.8978 18.095 26.7728 17.745 26.5228 17.475C26.2728 17.195 25.9328 16.96 25.5028 16.77C25.0828 16.57 24.6078 16.38 24.0778 16.2C23.2478 15.92 22.4978 15.605 21.8278 15.255C21.1578 14.895 20.6228 14.435 20.2228 13.875C19.8328 13.315 19.6378 12.59 19.6378 11.7C19.6378 10.88 19.8478 10.14 20.2678 9.48C20.6878 8.81 21.3078 8.28 22.1278 7.89C22.9478 7.5 23.9678 7.305 25.1878 7.305C26.1478 7.305 26.9778 7.41 27.6778 7.62C28.3878 7.83 29.0278 8.09 29.5978 8.4L29.2678 11.325C28.6778 10.895 28.0628 10.54 27.4228 10.26C26.7828 9.97 26.0578 9.825 25.2478 9.825C24.5278 9.825 23.9578 9.965 23.5378 10.245C23.1278 10.525 22.9228 10.94 22.9228 11.49C22.9228 12.11 23.1828 12.565 23.7028 12.855C24.2228 13.145 25.0328 13.49 26.1328 13.89C26.7128 14.1 27.2528 14.33 27.7528 14.58C28.2528 14.83 28.6928 15.125 29.0728 15.465C29.4528 15.805 29.7478 16.21 29.9578 16.68C30.1678 17.15 30.2728 17.71 30.2728 18.36C30.2728 19.2 30.0728 19.955 29.6728 20.625C29.2728 21.295 28.6478 21.825 27.7978 22.215C26.9478 22.605 25.8478 22.8 24.4978 22.8ZM32.8355 22.5V-1.78814e-06H36.1805V13.935L41.1155 7.605H44.9855L39.3755 14.685L45.1205 22.5H41.2355L36.1805 15.54V22.5H32.8355Z" fill="#F9FAFB"/>
<path d="M47.4394 22.5V1.5H60.6544V4.8H50.9794V9.885H58.5544V13.185H50.9794V19.2H60.9394V22.5H47.4394ZM62.3187 22.5L67.3437 15.06L62.3637 7.605H66.2787L69.3687 12.495L72.2037 7.605H76.1787L71.2437 14.985L76.2387 22.5H72.3087L69.2187 17.625L66.2487 22.5H62.3187ZM78.3342 29.76V7.605H81.0042L81.6492 10.41L80.6592 9.975C81.3292 9.175 82.0842 8.54 82.9242 8.07C83.7742 7.59 84.8092 7.35 86.0292 7.35C87.4592 7.35 88.6642 7.7 89.6442 8.4C90.6342 9.1 91.3842 10.035 91.8942 11.205C92.4042 12.375 92.6592 13.665 92.6592 15.075C92.6592 16.485 92.4092 17.775 91.9092 18.945C91.4092 20.115 90.6692 21.05 89.6892 21.75C88.7092 22.45 87.4892 22.8 86.0292 22.8C84.8592 22.8 83.8692 22.61 83.0592 22.23C82.2592 21.85 81.5442 21.26 80.9142 20.46L81.6792 19.785V29.76H78.3342ZM85.4892 19.98C86.6692 19.98 87.5892 19.535 88.2492 18.645C88.9092 17.745 89.2392 16.555 89.2392 15.075C89.2392 13.585 88.9092 12.395 88.2492 11.505C87.5892 10.615 86.6692 10.17 85.4892 10.17C84.6492 10.17 83.9292 10.37 83.3292 10.77C82.7392 11.16 82.2892 11.72 81.9792 12.45C81.6692 13.18 81.5142 14.055 81.5142 15.075C81.5142 16.115 81.6692 17 81.9792 17.73C82.2892 18.46 82.7392 19.02 83.3292 19.41C83.9292 19.79 84.6492 19.98 85.4892 19.98ZM102.496 22.8C100.716 22.8 99.2264 22.44 98.0264 21.72C96.8364 21 95.9364 20.05 95.3264 18.87C94.7264 17.68 94.4264 16.375 94.4264 14.955C94.4264 13.585 94.7064 12.325 95.2664 11.175C95.8364 10.015 96.6614 9.09 97.7414 8.4C98.8314 7.7 100.151 7.35 101.701 7.35C103.061 7.35 104.221 7.625 105.181 8.175C106.141 8.725 106.871 9.485 107.371 10.455C107.881 11.415 108.136 12.515 108.136 13.755C108.136 14.035 108.116 14.33 108.076 14.64C108.046 14.94 108.001 15.25 107.941 15.57H97.8914C98.0314 16.66 98.3364 17.525 98.8064 18.165C99.2764 18.805 99.8614 19.27 100.561 19.56C101.261 19.84 102.016 19.98 102.826 19.98C103.626 19.98 104.396 19.885 105.136 19.695C105.886 19.495 106.581 19.225 107.221 18.885L107.476 21.66C106.906 21.94 106.201 22.2 105.361 22.44C104.521 22.68 103.566 22.8 102.496 22.8ZM98.0414 13.29H104.716C104.716 12.75 104.611 12.245 104.401 11.775C104.201 11.295 103.876 10.91 103.426 10.62C102.986 10.32 102.406 10.17 101.686 10.17C100.636 10.17 99.8164 10.455 99.2264 11.025C98.6464 11.595 98.2514 12.35 98.0414 13.29ZM110.737 22.5V7.605H113.767L113.932 9.51C114.452 8.9 115.057 8.38 115.747 7.95C116.437 7.52 117.182 7.305 117.982 7.305C118.222 7.305 118.447 7.33 118.657 7.38L118.387 10.785C118.197 10.735 118.007 10.705 117.817 10.695C117.627 10.675 117.432 10.665 117.232 10.665C116.552 10.665 115.927 10.82 115.357 11.13C114.787 11.44 114.387 11.8 114.157 12.21V22.5H110.737ZM125.457 22.8C124.517 22.8 123.757 22.615 123.177 22.245C122.597 21.875 122.172 21.405 121.902 20.835C121.632 20.255 121.497 19.65 121.497 19.02V10.32H119.217L119.517 7.605H121.497V4.185L124.842 3.84V7.605H128.352V10.32H124.842V17.445C124.842 18.275 124.892 18.875 124.992 19.245C125.092 19.605 125.322 19.835 125.682 19.935C126.042 20.025 126.622 20.07 127.422 20.07H128.322L128.037 22.8H125.457ZM134.976 22.8C133.876 22.8 132.916 22.685 132.096 22.455C131.276 22.215 130.551 21.94 129.921 21.63L130.251 18.645C130.851 19.035 131.536 19.385 132.306 19.695C133.076 19.995 133.926 20.145 134.856 20.145C135.676 20.145 136.301 20.015 136.731 19.755C137.161 19.485 137.376 19.075 137.376 18.525C137.376 18.095 137.251 17.745 137.001 17.475C136.751 17.195 136.411 16.96 135.981 16.77C135.561 16.57 135.086 16.38 134.556 16.2C133.726 15.92 132.976 15.605 132.306 15.255C131.636 14.895 131.101 14.435 130.701 13.875C130.311 13.315 130.116 12.59 130.116 11.7C130.116 10.88 130.326 10.14 130.746 9.48C131.166 8.81 131.786 8.28 132.606 7.89C133.426 7.5 134.446 7.305 135.666 7.305C136.626 7.305 137.456 7.41 138.156 7.62C138.866 7.83 139.506 8.09 140.076 8.4L139.746 11.325C139.156 10.895 138.541 10.54 137.901 10.26C137.261 9.97 136.536 9.825 135.726 9.825C135.006 9.825 134.436 9.965 134.016 10.245C133.606 10.525 133.401 10.94 133.401 11.49C133.401 12.11 133.661 12.565 134.181 12.855C134.701 13.145 135.511 13.49 136.611 13.89C137.191 14.1 137.731 14.33 138.231 14.58C138.731 14.83 139.171 15.125 139.551 15.465C139.931 15.805 140.226 16.21 140.436 16.68C140.646 17.15 140.751 17.71 140.751 18.36C140.751 19.2 140.551 19.955 140.151 20.625C139.751 21.295 139.126 21.825 138.276 22.215C137.426 22.605 136.326 22.8 134.976 22.8Z" fill="#FFCC4A"/>
</svg>
